<svg width="162" height="144" viewBox="0 0 162 144" fill="none" xmlns="http://www.w3.org/2000/svg">
<path d="M158.642 10.3363C161.017 14.7865 160.403 20.7821 156.841 28.0257C153.291 35.2432 146.909 43.4899 138.156 52.2462C120.657 69.7497 93.8497 89.1239 61.8762 106.189C29.9027 123.253 -1.11412 134.741 -25.3952 139.536C-37.5422 141.935 -47.9456 142.647 -55.9174 141.578C-63.9181 140.506 -69.2406 137.679 -71.6158 133.228C-73.9909 128.778 -73.3774 122.783 -69.815 115.539C-66.2654 108.322 -59.8834 100.075 -51.1296 91.3185C-33.6313 73.815 -6.82372 54.4408 25.1498 37.3761C57.1233 20.3113 88.1401 8.82368 112.421 4.02879C124.568 1.63009 134.972 0.918108 142.943 1.98644C150.944 3.05864 156.267 5.88608 158.642 10.3363Z" stroke="black" stroke-width="2"/>
</svg>
